<svg preserveAspectRatio="xMidYMid meet" viewBox="92.16 288.768 278.528 268.288" xmlns="http://www.w3.org/2000/svg" version="1.0" style="max-height: 500px" width="278.528" height="268.288">

<g stroke="none" fill="#000000" transform="translate(0.000000,1024.000000) scale(0.100000,-0.100000)">
<path d="M3115 7322 c-30 -6 -45 -31 -45 -79 l0 -43 -750 0 -750 0 0 48 c0 56&#10;-12 72 -55 72 -46 0 -64 -18 -67 -70 l-3 -45 -155 -5 c-164 -6 -190 -12 -250&#10;-60 -80 -63 -74 27 -72 -1183 2 -1048 2 -1078 21 -1115 23 -45 81 -99 127&#10;-118 28 -12 233 -14 1201 -14 l1168 0 50 24 c28 13 62 36 77 52 61 65 58 2 58&#10;1176 -1 1199 5 1111 -71 1177 -63 54 -93 61 -259 61 l-150 0 0 49 c0 59 -25&#10;83 -75 73z m-1664 -290 c-3 -53 18 -82 62 -82 47 0 67 25 67 82 l0 48 745 0&#10;745 0 0 -43 c0 -55 22 -87 61 -87 46 0 72 33 66 86 l-5 44 135 0 c142 0 192&#10;-11 212 -48 5 -10 11 -81 12 -158 l1 -139 -1233 0 -1234 0 -3 125 c-2 103 1&#10;131 15 160 28 54 50 60 213 57 l145 -2 -4 -43z m2099 -1262 c0 -589 -3 -856&#10;-11 -873 -6 -13 -25 -32 -42 -43 -31 -18 -66 -19 -1172 -19 -627 0 -1152 3&#10;-1167 8 -15 4 -36 19 -45 34 -17 25 -18 85 -21 885 l-3 858 1231 0 1230 0 0&#10;-850z"/>
<path d="M1756 6418 c-13 -18 -16 -54 -16 -185 l0 -163 -168 0 c-159 0 -170&#10;-1 -188 -21 -18 -20 -19 -44 -22 -395 -3 -364 -2 -374 18 -394 20 -20 28 -20&#10;963 -20 720 0 946 3 955 12 9 9 12 152 12 583 0 541 -1 573 -18 588 -17 16&#10;-85 17 -770 17 l-751 0 -15 -22z m354 -218 l0 -131 -127 3 -128 3 -3 114 c-1&#10;63 0 121 2 128 4 10 37 13 131 13 l125 0 0 -130z m360 0 l0 -130 -125 0 -125&#10;0 0 130 0 130 125 0 125 0 0 -130z m360 0 l0 -130 -124 0 -125 0 -3 130 -3&#10;130 128 0 127 0 0 -130z m370 0 l0 -130 -130 0 -130 0 0 130 0 130 130 0 130&#10;0 0 -130z m-1460 -365 l0 -125 -130 0 -130 0 0 125 0 125 130 0 130 0 0 -125z&#10;m370 0 l0 -125 -130 0 -130 0 0 125 0 125 130 0 130 0 0 -125z m360 0 l0 -125&#10;-125 0 -125 0 0 125 0 125 125 0 125 0 0 -125z m360 0 l0 -125 -131 0 c-115 0&#10;-130 2 -125 16 3 9 6 65 6 125 l0 109 125 0 125 0 0 -125z m370 0 l0 -125&#10;-130 0 -130 0 0 125 0 125 130 0 130 0 0 -125z m-1460 -355 l0 -130 -130 0&#10;-130 0 0 123 c0 68 3 127 7 130 3 4 62 7 130 7 l123 0 0 -130z m370 0 l0 -130&#10;-130 0 -130 0 0 123 c0 68 3 127 7 130 3 4 62 7 130 7 l123 0 0 -130z m360 0&#10;l0 -130 -125 0 -125 0 0 130 0 130 125 0 125 0 0 -130z m360 0 l0 -130 -125 0&#10;-125 0 0 130 0 130 125 0 125 0 0 -130z m372 0 l3 -130 -132 0 -133 0 0 130 0&#10;130 129 0 130 0 3 -130z"/>
<path d="M1370 5060 c-25 -25 -26 -52 -2 -73 17 -15 70 -17 550 -17 577 0 562&#10;-2 562 55 0 55 1 55 -567 55 -510 0 -524 -1 -543 -20z"/>
<path d="M2050 3871 l0 -181 30 0 30 0 0 175 c0 144 -2 175 -14 175 -8 0 -21&#10;3 -30 6 -14 5 -16 -14 -16 -175z"/>
<path d="M4070 3983 c0 -67 -3 -71 -34 -48 -29 22 -78 18 -117 -8 -69 -46 -73&#10;-157 -8 -211 40 -34 102 -36 136 -4 l23 21 0 -22 c0 -18 5 -22 28 -19 l27 3 3&#10;171 3 172 -30 4 -31 5 0 -64z m-24 -104 c43 -48 10 -141 -50 -141 -70 0 -101&#10;115 -42 154 22 15 73 8 92 -13z"/>
<path d="M520 3865 l0 -175 31 0 31 0 -4 130 c-2 72 -1 130 2 130 3 0 19 -39&#10;35 -87 48 -148 61 -173 88 -173 22 0 30 13 70 118 26 64 51 128 56 142 7 18&#10;10 -14 10 -117 l1 -143 30 0 30 0 0 175 0 175 -47 0 -48 0 -50 -134 c-31 -84&#10;-52 -128 -56 -118 -3 9 -25 70 -48 135 l-43 117 -44 0 -44 0 0 -175z"/>
<path d="M1760 3865 l0 -175 25 0 c25 0 25 1 25 85 0 96 16 125 68 125 45 0&#10;52 -15 52 -117 l0 -93 30 0 30 0 0 105 c0 99 -2 107 -25 130 -29 30 -97 34&#10;-133 9 l-22 -15 0 60 c0 58 -1 61 -25 61 l-25 0 0 -175z"/>
<path d="M2640 3874 c-36 -92 -66 -171 -68 -176 -2 -4 12 -8 32 -8 32 0 36 3&#10;42 35 9 50 22 56 110 53 l77 -3 15 -42 c12 -39 17 -43 48 -43 19 0 34 1 34 3&#10;-1 1 -31 79 -68 172 l-68 170 -45 3 -44 3 -65 -167z m143 29 l27 -73 -60 0&#10;c-33 0 -60 3 -60 6 0 20 54 154 60 147 4 -4 19 -41 33 -80z"/>
<path d="M1578 3983 c-2 -31 -7 -39 -26 -41 -27 -4 -26 -38 1 -36 12 1 17 -7&#10;18 -30 1 -17 3 -57 4 -89 2 -37 8 -64 19 -76 31 -34 106 -35 106 -1 0 11 -10&#10;20 -30 24 -30 6 -32 11 -32 81 0 82 1 85 33 85 26 0 30 3 27 22 -2 17 -10 22&#10;-33 23 -27 0 -30 3 -33 38 -3 31 -7 37 -27 37 -20 0 -24 -6 -27 -37z"/>
<path d="M1004 3931 c-63 -39 -77 -144 -26 -199 57 -61 156 -61 206 -1 50 59&#10;46 131 -9 186 -29 29 -39 33 -86 33 -35 0 -65 -7 -85 -19z m123 -45 c37 -32&#10;39 -93 4 -130 -39 -41 -88 -31 -117 25 -20 39 -11 82 23 109 34 26 56 25 90&#10;-4z"/>
<path d="M1260 3820 l0 -130 30 0 30 0 0 88 c0 100 12 122 68 122 43 0 52 -22&#10;52 -124 l0 -86 30 0 30 0 0 89 c0 95 -10 136 -38 157 -24 19 -83 17 -111 -2&#10;-22 -16 -24 -16 -33 0 -5 9 -20 16 -33 16 l-25 0 0 -130z"/>
<path d="M2160 3946 c0 -3 22 -62 50 -131 47 -121 49 -128 34 -156 -8 -17 -23&#10;-29 -34 -29 -13 0 -20 -7 -20 -20 0 -27 48 -27 83 0 22 17 69 123 143 323 5&#10;14 1 17 -24 17 -29 0 -31 -4 -63 -95 -31 -87 -49 -117 -49 -81 0 8 -14 51 -32&#10;95 -29 75 -33 81 -60 81 -15 0 -28 -2 -28 -4z"/>
<path d="M3018 3934 c-36 -19 -58 -63 -58 -114 0 -56 23 -97 66 -115 49 -20&#10;76 -19 107 5 34 27 36 26 27 -14 -10 -47 -16 -54 -51 -61 -24 -5 -38 -2 -60&#10;14 -25 19 -79 29 -79 15 0 -17 24 -46 50 -59 57 -30 151 -11 184 36 13 19 16&#10;50 16 166 l0 143 -25 0 c-19 0 -25 -5 -25 -21 l0 -20 -26 20 c-31 25 -87 27&#10;-126 5z m114 -44 c30 -23 40 -62 26 -102 -19 -53 -83 -65 -117 -22 -29 37 -27&#10;89 4 119 29 30 54 32 87 5z"/>
<path d="M3315 3917 c-88 -88 -30 -231 95 -231 43 0 55 5 85 34 19 19 35 38&#10;35 42 0 16 -58 7 -75 -12 -10 -11 -31 -20 -47 -20 -27 0 -68 30 -68 50 0 6 0&#10;13 0 16 0 3 43 6 95 6 107 1 109 2 79 78 -20 49 -56 70 -120 70 -39 0 -51 -5&#10;-79 -33z m132 -29 c40 -37 30 -48 -42 -48 -58 0 -65 2 -65 19 0 23 36 51 64&#10;51 11 0 30 -10 43 -22z"/>
<path d="M3578 3820 l-3 -130 28 0 27 0 0 79 c0 92 21 131 70 131 42 0 51 -20&#10;53 -119 l2 -91 28 0 29 0 -4 115 c-3 100 -5 116 -23 129 -30 23 -97 20 -129&#10;-5 l-26 -20 0 20 c0 16 -6 21 -24 21 l-25 0 -3 -130z"/>
<path d="M4244 3940 c-21 -8 -54 -46 -54 -62 0 -18 60 -7 70 12 13 24 62 27&#10;84 4 31 -30 19 -39 -66 -50 -89 -12 -129 -82 -75 -132 28 -26 101 -30 134 -7&#10;19 13 22 13 27 0 3 -8 17 -15 32 -15 l26 0 -4 111 c-3 102 -5 112 -27 130 -25&#10;20 -107 25 -147 9z m116 -140 c0 -57 -101 -95 -108 -41 -5 36 13 46 101 60 4&#10;0 7 -8 7 -19z"/>
<path d="M1790 3313 c0 -64 -1 -66 -19 -49 -10 9 -34 19 -53 22 -115 19 -180&#10;-145 -92 -233 39 -40 96 -45 138 -12 l26 20 0 -20 c0 -17 6 -21 30 -21 l30 0&#10;0 180 0 180 -30 0 -30 0 0 -67z m-20 -95 c28 -30 27 -94 -2 -125 -53 -56 -135&#10;-9 -125 72 10 70 83 100 127 53z"/>
<path d="M2060 3200 l0 -180 88 1 c111 1 132 7 159 48 30 44 29 86 -1 116&#10;l-24 24 20 39 c18 37 18 43 4 76 -19 47 -46 56 -157 56 l-89 0 0 -180z m178&#10;118 c19 -19 15 -66 -7 -78 -11 -5 -42 -10 -70 -10 l-51 0 0 50 0 50 58 0 c32&#10;0 63 -5 70 -12z m18 -163 c15 -23 15 -27 0 -50 -19 -29 -47 -38 -102 -33 l-39&#10;3 -3 53 -3 52 65 0 c59 0 67 -3 82 -25z"/>
<path d="M2950 3200 l0 -180 30 0 c30 0 30 1 30 54 0 30 4 57 9 61 6 3 29 -22&#10;52 -55 40 -56 46 -60 82 -60 l38 0 -48 61 c-85 109 -83 94 -27 150 l48 49 -36&#10;0 c-31 0 -42 -7 -77 -47 l-41 -48 0 98 0 97 -30 0 -30 0 0 -180z"/>
<path d="M3230 3200 l0 -180 31 0 32 0 -6 148 c-4 81 -7 162 -7 180 0 27 -4&#10;32 -25 32 l-25 0 0 -180z"/>
<path d="M1080 3283 c-23 -9 -60 -45 -60 -59 0 -21 40 -24 61 -3 25 25 75 25&#10;89 0 15 -28 14 -29 -32 -36 -24 -3 -58 -11 -75 -16 -98 -31 -74 -149 29 -149&#10;24 0 53 7 65 15 19 13 22 13 27 0 3 -8 17 -15 31 -15 l25 0 0 104 c0 95 -2&#10;107 -23 132 -18 21 -34 27 -73 30 -27 2 -56 1 -64 -3z m100 -153 c0 -27 -43&#10;-70 -69 -70 -20 0 -51 24 -51 39 0 14 29 33 63 41 51 12 57 11 57 -10z"/>
<path d="M1404 3280 c-12 -5 -25 -13 -29 -19 -9 -16 -25 -13 -25 4 0 9 -9 15&#10;-25 15 l-25 0 0 -130 0 -130 30 0 30 0 0 94 c0 87 2 96 22 110 27 19 69 21 86&#10;4 8 -8 12 -47 12 -110 l0 -98 30 0 30 0 0 106 c0 103 -1 106 -29 135 -30 30&#10;-65 36 -107 19z"/>
<path d="M2434 3281 c-24 -11 -54 -48 -54 -68 0 -20 45 -15 65 7 23 25 73 23&#10;89 -3 13 -21 -5 -37 -44 -37 -14 0 -42 -5 -62 -11 -66 -18 -86 -98 -35 -134&#10;27 -19 98 -19 123 0 25 19 34 19 34 0 0 -9 9 -15 25 -15 l25 0 0 104 c0 94 -2&#10;107 -22 131 -18 19 -35 27 -73 30 -27 3 -60 1 -71 -4z m106 -151 c0 -26 -43&#10;-70 -68 -70 -11 0 -25 7 -32 15 -21 25 -7 49 35 61 57 17 65 17 65 -6z"/>
<path d="M2720 3273 c-85 -44 -93 -170 -14 -232 61 -48 194 -8 194 58 0 21&#10;-53 11 -76 -15 -27 -29 -53 -26 -91 9 -31 27 -32 98 -3 127 30 30 83 27 109&#10;-6 20 -26 51 -29 58 -7 2 6 -9 26 -24 43 -37 41 -100 50 -153 23z"/>
<path d="M3400 3273 c-41 -21 -70 -73 -70 -124 0 -42 34 -97 70 -117 35 -18&#10;124 -10 151 14 26 23 49 74 49 109 0 34 -33 97 -59 113 -38 22 -103 25 -141 5z&#10;m116 -54 c12 -14 19 -36 19 -64 0 -54 -25 -85 -71 -85 -65 0 -100 96 -52 147&#10;28 30 78 31 104 2z"/>
<path d="M3703 3276 c-59 -27 -82 -119 -47 -191 27 -57 122 -77 164 -35 l20&#10;20 0 -34 c0 -65 -77 -99 -122 -54 -25 25 -47 31 -67 19 -10 -7 -11 -13 -2 -30&#10;18 -32 64 -51 127 -51 50 0 59 3 90 34 l34 34 0 146 0 146 -30 0 c-22 0 -28&#10;-4 -24 -15 8 -19 -5 -19 -26 0 -25 23 -80 27 -117 11z m112 -61 c42 -41 30&#10;-116 -22 -136 -75 -28 -134 69 -82 135 27 34 71 35 104 1z"/>
</g>
</svg>