<svg preserveAspectRatio="xMidYMid meet" viewBox="24.576 288.768 346.112 268.288" xmlns="http://www.w3.org/2000/svg" version="1.0" style="max-height: 500px" width="346.112" height="268.288">

<g stroke="none" fill="#000000" transform="translate(0.000000,1024.000000) scale(0.100000,-0.100000)">
<path d="M715 7291 c-26 -12 -48 -32 -62 -58 -23 -40 -23 -45 -23 -422 l0&#10;-381 -115 0 c-132 0 -176 -15 -217 -72 l-23 -33 -3 -715 c-2 -488 0 -727 8&#10;-752 13 -45 74 -100 129 -116 50 -16 829 -17 884 -1 40 11 100 57 120 93 7 12&#10;14 84 17 176 l5 155 150 3 c82 1 154 1 160 -1 13 -6 2 -240 -14 -279 -10 -27&#10;-13 -28 -90 -28 -69 0 -82 -3 -91 -19 -16 -30 -12 -59 10 -81 20 -20 31 -20&#10;607 -18 l587 3 15 26 c12 22 12 29 0 55 -14 29 -15 29 -106 32 l-92 3 -10 32&#10;c-5 18 -12 64 -16 102 -3 39 -8 94 -11 122 l-6 52 520 3 c511 3 521 3 549 24&#10;15 12 37 36 48 55 19 32 19 54 16 989 -3 1080 3 1004 -81 1048 l-44 22 -1391&#10;0 c-1325 0 -1392 -1 -1430 -19z m2798 -119 c15 -17 17 -90 19 -776 3 -750 3&#10;-757 -17 -762 -11 -2 -483 -3 -1050 -2 l-1030 3 -5 335 c-6 377 -6 377 -82&#10;428 l-41 27 -279 3 -278 3 0 344 c0 337 4 389 33 407 7 4 620 8 1363 8 1292 0&#10;1352 -1 1367 -18z m-2229 -887 c14 -22 16 -95 16 -707 0 -413 -4 -689 -10&#10;-698 -8 -13 -69 -15 -434 -18 l-424 -3 -21 27 c-21 27 -21 31 -21 701 l0 674&#10;25 24 24 25 414 0 415 0 16 -25z m2250 -879 c-1 -79 -5 -110 -15 -116 -7 -5&#10;-480 -8 -1051 -8 l-1038 1 0 118 0 119 1053 -2 1052 -3 -1 -109z m-1114 -308&#10;l-5 -63 -3 58 -3 57 -253 0 -253 0 -2 -52 c-2 -29 -7 -73 -12 -98 -8 -44 -8&#10;-44 -4 10 3 30 5 76 5 103 l0 47 268 0 267 0 -5 -62z m24 -225 c5 -11 -45 -13&#10;-289 -12 -162 1 -295 6 -295 11 0 4 128 8 284 8 l284 0 -4 68 -3 67 9 -64 c5&#10;-35 11 -70 14 -78z m-571 26 c-6 -6 -7 3 -4 23 4 28 6 29 9 9 2 -13 0 -27 -5&#10;-32z"/>
<path d="M580 3865 l0 -175 30 0 30 0 0 70 c0 68 1 70 25 70 18 0 32 -12 56&#10;-47 53 -79 69 -93 107 -93 l34 0 -46 64 c-46 65 -55 86 -36 86 6 0 22 11 35&#10;25 44 43 27 137 -30 163 -14 7 -66 12 -115 12 l-90 0 0 -175z m178 109 c28&#10;-19 29 -57 2 -84 -15 -15 -33 -20 -70 -20 l-50 0 0 60 0 60 48 0 c27 0 57 -7&#10;70 -16z"/>
<path d="M2650 4010 c0 -27 3 -30 30 -30 27 0 30 3 30 30 0 27 -3 30 -30 30&#10;-27 0 -30 -3 -30 -30z"/>
<path d="M941 3924 c-18 -15 -35 -42 -42 -67 -28 -104 54 -188 161 -166 32 7&#10;80 48 80 70 0 16 -41 10 -67 -11 -34 -27 -69 -25 -98 5 -45 44 -35 50 76 47&#10;l102 -3 -6 43 c-9 64 -60 108 -126 108 -39 0 -56 -6 -80 -26z m130 -35 c32&#10;-32 19 -44 -54 -47 -74 -3 -82 5 -45 45 27 29 71 30 99 2z"/>
<path d="M1215 3925 c-49 -49 -28 -98 53 -121 72 -21 85 -30 71 -55 -15 -29&#10;-74 -26 -94 5 -11 17 -22 22 -40 18 -28 -5 -31 -18 -11 -44 14 -19 73 -46 94&#10;-42 6 1 24 2 38 3 31 1 84 52 84 80 0 32 -32 57 -94 75 -62 18 -80 41 -51 62&#10;26 19 42 17 65 -6 23 -23 70 -27 70 -6 0 30 -50 56 -107 56 -44 0 -58 -5 -78&#10;-25z"/>
<path d="M1460 3770 l0 -180 31 0 30 0 -1 58 c-2 78 -2 77 18 60 42 -37 114&#10;-27 156 21 23 26 35 95 24 138 -19 74 -122 109 -182 62 l-26 -20 0 20 c0 16&#10;-6 21 -25 21 l-25 0 0 -180z m184 108 c25 -35 20 -94 -9 -123 -30 -31 -56 -32&#10;-92 -1 -34 29 -39 92 -9 125 27 30 89 29 110 -1z"/>
<path d="M1845 3940 c-90 -37 -101 -191 -17 -234 89 -46 190 -3 208 88 10 56&#10;-10 113 -49 136 -33 21 -105 26 -142 10z m107 -58 c26 -22 33 -74 14 -110 -25&#10;-49 -72 -57 -111 -17 -41 40 -31 126 18 144 26 10 56 3 79 -17z"/>
<path d="M2090 3820 l0 -130 30 0 30 0 0 83 c0 99 14 127 64 127 49 0 56 -14&#10;56 -117 l0 -93 30 0 30 0 0 105 c0 99 -2 107 -25 130 -28 29 -99 34 -131 10&#10;-25 -19 -35 -19 -28 0 5 11 -1 15 -25 15 l-31 0 0 -130z"/>
<path d="M2416 3929 c-19 -15 -26 -30 -26 -54 0 -40 14 -52 87 -74 50 -15 58&#10;-21 58 -42 0 -20 -5 -24 -36 -27 -29 -2 -41 2 -56 21 -23 30 -76 28 -66 -2 18&#10;-51 86 -79 151 -61 102 27 98 133 -5 147 -21 3 -50 14 -64 24 l-24 19 24 20&#10;c25 22 57 19 77 -6 6 -8 23 -14 37 -14 20 0 24 4 20 20 -9 33 -43 50 -99 50&#10;-37 0 -59 -6 -78 -21z"/>
<path d="M2650 3820 l0 -130 30 0 30 0 0 130 0 130 -30 0 -30 0 0 -130z"/>
<path d="M2802 3821 c50 -129 52 -131 82 -131 30 0 32 3 79 118 27 64 51 123&#10;54 130 4 10 -3 13 -27 10 -32 -3 -34 -6 -64 -90 -17 -48 -34 -89 -37 -93 -3&#10;-3 -21 36 -40 87 -33 88 -36 93 -66 96 l-31 3 50 -130z"/>
<path d="M3074 3931 c-53 -33 -70 -119 -34 -178 28 -46 63 -65 120 -66 42 -1&#10;55 4 80 28 16 16 30 35 30 42 0 20 -48 15 -70 -7 -27 -27 -66 -25 -95 5 -43&#10;42 -34 51 50 47 89 -5 125 2 125 25 0 31 -40 100 -66 111 -38 18 -105 14 -140&#10;-7z m125 -47 c11 -15 18 -30 15 -35 -3 -5 -34 -9 -70 -9 -71 0 -82 12 -44 50&#10;29 29 74 26 99 -6z"/>
<path d="M1150 3200 l0 -182 93 4 c150 6 199 48 205 171 3 62 1 77 -20 106&#10;-43 64 -68 75 -178 79 l-100 4 0 -182z m174 120 c61 -23 86 -132 46 -197 -20&#10;-34 -78 -57 -128 -51 l-27 3 -3 128 -3 127 45 0 c25 0 56 -4 70 -10z"/>
<path d="M2050 3352 c0 -36 5 -40 35 -34 20 3 25 10 25 33 0 26 -4 29 -30 29&#10;-26 0 -30 -4 -30 -28z"/>
<path d="M1558 3274 c-44 -19 -68 -64 -68 -126 1 -80 50 -128 133 -128 40 0&#10;54 5 78 29 16 16 29 34 29 40 0 17 -56 13 -70 -4 -29 -34 -96 -12 -113 38 -6&#10;15 3 17 93 17 l100 0 0 35 c0 26 -9 45 -33 71 -39 42 -92 53 -149 28z m104&#10;-51 c35 -32 23 -43 -47 -43 -69 0 -79 8 -48 42 20 22 70 23 95 1z"/>
<path d="M1818 3275 c-33 -18 -45 -57 -29 -91 12 -26 32 -37 99 -54 48 -12 63&#10;-34 39 -57 -19 -19 -72 -9 -91 18 -10 15 -20 18 -40 13 -14 -3 -26 -11 -26&#10;-16 0 -21 59 -68 87 -69 98 -4 143 23 143 85 0 37 -22 55 -90 74 -73 19 -90&#10;43 -45 64 22 10 30 8 55 -10 55 -41 92 -21 52 28 -24 30 -113 38 -154 15z"/>
<path d="M2233 3275 c-77 -33 -96 -144 -37 -215 23 -27 32 -30 79 -30 43 0 59&#10;5 75 22 l20 22 0 -33 c0 -39 -38 -81 -73 -81 -13 0 -36 9 -50 20 -27 21 -77&#10;27 -77 9 0 -6 13 -24 29 -40 25 -25 37 -29 83 -29 71 0 120 25 135 70 7 19 12&#10;92 12 163 l1 127 -30 0 c-21 0 -30 -5 -30 -16 0 -13 -5 -12 -26 5 -31 24 -66&#10;26 -111 6z m116 -61 c29 -37 27 -85 -5 -118 -49 -48 -111 -23 -121 49 -11 83&#10;78 131 126 69z"/>
<path d="M2594 3281 c-12 -5 -25 -14 -29 -20 -9 -16 -25 -13 -25 4 0 9 -9 15&#10;-25 15 l-25 0 0 -130 0 -130 30 0 30 0 0 94 c0 87 2 96 22 110 27 19 59 21 76&#10;4 8 -8 12 -47 12 -110 l0 -98 30 0 30 0 0 109 c0 89 -3 113 -17 130 -20 24&#10;-77 35 -109 22z"/>
<path d="M2052 3153 l3 -126 28 -4 27 -4 0 131 0 130 -30 0 -31 0 3 -127z"/>
</g>
</svg>