<svg preserveAspectRatio="xMidYMid meet" viewBox="174.08 299.008 239.616 247.808" xmlns="http://www.w3.org/2000/svg" version="1.0" style="max-height: 500px" width="239.616" height="247.808">

<g stroke="none" fill="#000000" transform="translate(0.000000,1024.000000) scale(0.100000,-0.100000)">
<path d="M1935 7182 c-123 -59 -165 -141 -165 -322 0 -155 -9 -150 248 -150&#10;l202 0 0 -842 c0 -471 5 -860 10 -882 13 -56 58 -116 115 -151 l48 -30 745 -3&#10;c848 -3 809 -6 892 77 85 85 80 17 80 1102 0 652 -3 974 -11 1009 -18 82 -63&#10;139 -143 180 l-69 35 -946 3 -946 2 -60 -28z m1978 -135 c72 -55 68 21 65&#10;-1066 l-3 -980 -34 -35 c-24 -25 -49 -39 -85 -47 -36 -7 -252 -10 -731 -7&#10;-750 3 -709 0 -752 65 -17 25 -18 93 -23 1018 -4 845 -7 994 -20 1015 -8 14&#10;-14 28 -15 32 0 3 -3 10 -7 14 -5 4 -8 11 -8 16 0 5 355 7 788 6 l789 -3 36&#10;-28z m-1883 14 c-47 -9 -58 -17 -81 -55 -10 -17 -19 -25 -19 -17 0 7 15 28 34&#10;47 26 26 42 34 68 33 l33 -1 -35 -7z m121 -18 c41 -35 59 -79 59 -148 l0 -55&#10;-150 0 c-142 0 -150 1 -150 19 0 11 5 23 10 26 6 3 10 -3 10 -14 0 -20 5 -21&#10;135 -21 l135 0 0 43 c0 90 -34 148 -96 167 -24 7 -25 8 -7 9 12 1 36 -11 54&#10;-26z"/>
<path d="M3466 6508 c-44 -46 -151 -163 -239 -260 -88 -98 -163 -178 -168&#10;-178 -4 0 -56 52 -116 115 -92 99 -112 115 -139 115 -35 0 -64 -26 -64 -59 0&#10;-14 39 -63 108 -139 175 -188 198 -206 242 -182 10 5 119 119 243 252 124 134&#10;239 256 255 272 32 30 48 73 38 104 -6 18 -45 42 -69 42 -7 0 -48 -37 -91 -82z"/>
<path d="M2612 5598 c-7 -7 -12 -27 -12 -45 0 -65 -12 -63 566 -61 l519 3 14&#10;29 c12 26 12 33 0 55 l-15 26 -530 3 c-404 2 -533 -1 -542 -10z"/>
<path d="M2610 5300 c-11 -11 -20 -31 -20 -45 0 -14 9 -34 20 -45 19 -19 33&#10;-20 404 -20 373 0 384 1 410 21 31 25 34 61 6 89 -19 19 -33 20 -410 20 -377&#10;0 -391 -1 -410 -20z"/>
<path d="M1800 3865 l0 -177 105 4 c85 3 109 7 132 24 38 27 73 99 73 149 0&#10;50 -35 122 -73 149 -23 17 -47 22 -133 24 l-104 4 0 -177z m190 107 c70 -35&#10;78 -136 15 -199 -29 -29 -39 -33 -89 -33 l-56 0 0 125 0 125 48 0 c26 0 63 -8&#10;82 -18z"/>
<path d="M2430 4010 c0 -27 3 -30 30 -30 27 0 30 3 30 30 0 27 -3 30 -30 30&#10;-27 0 -30 -3 -30 -30z"/>
<path d="M2560 3865 l0 -175 30 0 30 0 0 175 0 175 -30 0 -30 0 0 -175z"/>
<path d="M3120 3865 l0 -175 30 0 30 0 0 68 0 67 63 0 c77 1 112 21 129 77 10&#10;35 9 45 -8 76 -27 51 -55 62 -156 62 l-88 0 0 -175z m168 109 c14 -10 22 -26&#10;22 -44 0 -38 -32 -60 -87 -60 l-43 0 0 60 0 60 43 0 c23 0 53 -7 65 -16z"/>
<path d="M3420 3865 l0 -175 30 0 30 0 0 175 0 175 -30 0 -30 0 0 -175z"/>
<path d="M2179 3920 c-17 -16 -28 -34 -24 -40 11 -17 50 -11 63 10 23 38 104&#10;16 89 -24 -3 -8 -26 -15 -57 -18 -29 -3 -63 -14 -78 -25 -53 -40 -34 -113 35&#10;-132 31 -9 44 -7 75 8 30 14 38 15 42 5 3 -8 15 -14 26 -14 19 0 20 6 20 108&#10;0 100 -2 110 -23 130 -18 17 -36 22 -81 22 -51 0 -61 -4 -87 -30z m131 -135&#10;c0 -35 -43 -61 -78 -49 -60 21 -28 72 46 73 28 1 32 -2 32 -24z"/>
<path d="M2430 3820 l0 -130 30 0 30 0 0 130 0 130 -30 0 -30 0 0 -130z"/>
<path d="M2670 3945 c0 -3 5 -13 10 -23 6 -9 28 -62 51 -117 22 -55 43 -105&#10;45 -111 6 -14 -34 -64 -52 -64 -8 0 -14 -9 -14 -20 0 -16 7 -20 30 -20 46 0&#10;72 34 120 156 23 60 51 131 61 157 l19 48 -31 -3 c-30 -3 -33 -8 -61 -83 -15&#10;-44 -31 -87 -34 -95 -5 -14 -73 139 -74 168 0 11 -70 19 -70 7z"/>
<path d="M3571 3924 c-17 -14 -31 -32 -31 -40 0 -22 53 -17 68 6 24 38 104 16&#10;88 -25 -3 -9 -18 -15 -34 -15 -73 0 -132 -40 -132 -89 0 -60 74 -92 135 -61&#10;47 24 45 24 45 5 0 -10 10 -15 30 -15 l29 0 -3 107 c-4 102 -5 108 -30 130&#10;-40 34 -123 33 -165 -3z m129 -134 c0 -25 -34 -60 -59 -60 -20 0 -51 25 -51&#10;40 0 17 45 40 77 40 26 0 33 -4 33 -20z"/>
<path d="M3820 3820 l0 -130 30 0 30 0 0 85 c0 96 16 125 70 125 41 0 50 -23&#10;50 -124 l0 -86 30 0 30 0 0 105 c0 99 -2 107 -25 130 -29 30 -88 34 -124 9&#10;-22 -16 -24 -16 -33 0 -5 9 -20 16 -33 16 l-25 0 0 -130z"/>
<path d="M4120 3820 l0 -130 30 0 30 0 0 84 c0 95 16 129 63 129 49 0 57 -17&#10;57 -119 l0 -94 31 0 31 0 -4 111 c-3 102 -5 112 -27 130 -28 23 -97 25 -128 4&#10;-19 -13 -22 -13 -27 0 -3 8 -17 15 -31 15 l-25 0 0 -130z"/>
<path d="M4456 3919 c-58 -53 -62 -127 -10 -188 31 -37 87 -55 134 -41 37 11&#10;80 46 80 67 0 20 -38 16 -67 -7 -14 -11 -36 -20 -48 -20 -28 0 -75 36 -75 58&#10;0 15 11 17 91 14 50 -2 96 1 101 6 15 15 -8 85 -37 112 -18 17 -40 25 -79 28&#10;-50 4 -56 2 -90 -29z m133 -35 c11 -15 18 -30 15 -35 -3 -5 -34 -9 -70 -9 -71&#10;0 -82 12 -44 50 29 29 74 26 99 -6z"/>
<path d="M4710 3820 l0 -130 30 0 30 0 0 81 c0 98 9 117 58 125 31 5 38 10 40&#10;30 2 21 -3 24 -30 24 -19 0 -41 -9 -55 -22 l-23 -21 0 21 c0 17 -6 22 -25 22&#10;l-25 0 0 -130z"/>
</g>
</svg>